<?xml version="1.0" encoding="utf-8"?>
<!-- Generator: Adobe Illustrator 24.1.1, SVG Export Plug-In . SVG Version: 6.00 Build 0)  -->
<svg version="1.1" id="Layer_1" xmlns="http://www.w3.org/2000/svg" xmlns:xlink="http://www.w3.org/1999/xlink" x="0px" y="0px"
	 viewBox="0 0 512 512" style="enable-background:new 0 0 512 512;" xml:space="preserve">
<g>
	<path d="M483.6,56.9H170.7c-15.7,0-28.4,12.7-28.4,28.4c0,15.7,12.7,28.4,28.4,28.4h312.9c15.7,0,28.4-12.7,28.4-28.4
		C512,69.6,499.3,56.9,483.6,56.9"/>
	<path d="M483.6,227.6H284.4c-15.7,0-28.4,12.7-28.4,28.4c0,15.7,12.7,28.4,28.4,28.4h199.1c15.7,0,28.4-12.7,28.4-28.4
		C512,240.3,499.3,227.6,483.6,227.6"/>
	<path d="M483.6,398.2H170.7c-15.7,0-28.4,12.7-28.4,28.4c0,15.7,12.7,28.4,28.4,28.4h312.9c15.7,0,28.4-12.7,28.4-28.4
		C512,411,499.3,398.2,483.6,398.2"/>
	<path d="M8.3,162.3L102,256L8.3,349.7c-11.1,11.1-11.1,29.1,0,40.2c11.1,11.1,29.1,11.1,40.2,0l113.8-113.8
		c5.3-5.3,8.3-12.6,8.3-20.1c0-7.5-3-14.8-8.3-20.1L48.6,122.1c-11.1-11.1-29.1-11.1-40.2,0C-2.8,133.2-2.8,151.2,8.3,162.3
		L8.3,162.3z"/>
</g>
</svg>
